HIERARCHY
ROOT Hip
{
	OFFSET	0.00  0.00  0.00 
	CHANNELS 6 Xposition Yposition Zposition Xrotation Zrotation Yrotation
	JOINT Abdomen
	{
		OFFSET	0.039181 5.637571 0.560720
		CHANNELS 3 Xrotation Zrotation Yrotation
		JOINT Chest
		{
			OFFSET	-0.136063 7.190207 -0.124363
			CHANNELS 3 Xrotation Zrotation Yrotation
			JOINT Neck
			{
				OFFSET	0.193764 10.560151 -1.259468
				CHANNELS 3 Xrotation Zrotation Yrotation
				JOINT Head
				{
					OFFSET	-0.096882 0.362727 0.622109
					CHANNELS 3 Xrotation Zrotation Yrotation
					JOINT LeftEye
					{
						OFFSET	1.356350 5.062673 4.221998
						CHANNELS 3 Zrotation Yrotation Xrotation
						End Site
						{
							OFFSET 0.000000 0.000000 0.871939
						}
					}
					JOINT RightEye
					{
						OFFSET	-1.356350 5.062673 4.221998
						CHANNELS 3 Zrotation Yrotation Xrotation
						End Site
						{
							OFFSET 0.000000 0.000000 0.871939
						}
					}
				}
			}
			JOINT RightCollar
			{
				OFFSET	-3.778404 4.940989 0.193764
				CHANNELS 3 Yrotation Zrotation Xrotation
				JOINT RightShoulder
				{
					OFFSET	-2.615818 1.356350 -0.484411
					CHANNELS 3 Zrotation Yrotation Xrotation
					JOINT RightForearm
					{
						OFFSET	-11.432094 0.484410 -1.937643
						CHANNELS 3 Yrotation Zrotation Xrotation
						JOINT RightHand
						{
							OFFSET	-10.657035 -0.096881 0.581293
							CHANNELS 3 Zrotation Yrotation Xrotation
							JOINT RightThumb1
							{
								OFFSET	-0.678175 -0.581297 0.968821
								CHANNELS 3 Zrotation Yrotation Xrotation
								JOINT RightThumb2
								{
									OFFSET	-0.968823 -0.484410 0.484411
									CHANNELS 3 Zrotation Yrotation Xrotation
									JOINT RightThumb3
									{
										OFFSET	-0.929680 -0.497680 0.055639
										CHANNELS 3 Zrotation Yrotation Xrotation
										End Site
										{
											OFFSET -1.097190 -0.513867 -0.001182
										}
									}
								}
							}
							JOINT RightIndex1
							{
								OFFSET	-3.003348 0.581291 1.259468
								CHANNELS 3 Zrotation Yrotation Xrotation
								JOINT RightIndex2
								{
									OFFSET	-1.468153 -0.266718 0.069755
									CHANNELS 3 Zrotation Yrotation Xrotation
									JOINT RightIndex3
									{
										OFFSET	-0.944212 -0.382684 -0.083028
										CHANNELS 3 Zrotation Yrotation Xrotation
										End Site
										{
											OFFSET -0.675657 -0.558718 0.000000
										}
									}
								}
							}
							JOINT RightMid1
							{
								OFFSET	-3.197113 0.581291 0.290646
								CHANNELS 3 Zrotation Yrotation Xrotation
								JOINT RightMid2
								{
									OFFSET	-1.550115 -0.387529 0.000000
									CHANNELS 3 Zrotation Yrotation Xrotation
									JOINT RightMid3
									{
										OFFSET	-0.731071 -0.803926 0.018214
										CHANNELS 3 Zrotation Yrotation Xrotation
										End Site
										{
											OFFSET -0.366992 -0.937043 0.083406
										}
									}
								}
							}
							JOINT RightRing1
							{
								OFFSET	-3.197113 0.387529 -0.678175
								CHANNELS 3 Zrotation Yrotation Xrotation
								JOINT RightRing2
								{
									OFFSET	-1.259466 -0.484410 0.096882
									CHANNELS 3 Zrotation Yrotation Xrotation
									JOINT RightRing3
									{
										OFFSET	-0.551552 -0.801218 0.111221
										CHANNELS 3 Zrotation Yrotation Xrotation
										End Site
										{
											OFFSET -0.245208 -0.810324 0.000000
										}
									}
								}
							}
							JOINT RightPinky1
							{
								OFFSET	-2.809584 -0.096881 -1.453232
								CHANNELS 3 Zrotation Yrotation Xrotation
								JOINT RightPinky2
								{
									OFFSET	-0.984323 -0.316034 0.039140
									CHANNELS 3 Zrotation Yrotation Xrotation
									JOINT RightPinky3
									{
										OFFSET	-0.468908 -0.555906 0.057742
										CHANNELS 3 Zrotation Yrotation Xrotation
										End Site
										{
											OFFSET -0.479664 -0.640198 0.044081
										}
									}
								}
							}
						}
					}
				}
			}
			JOINT LeftCollar
			{
				OFFSET	3.972168 4.940989 0.193764
				CHANNELS 3 Yrotation Zrotation Xrotation
				JOINT LeftShoulder
				{
					OFFSET	2.615818 1.356350 -0.484411
					CHANNELS 3 Zrotation Yrotation Xrotation
					JOINT LeftForearm
					{
						OFFSET	11.432094 0.484410 -1.937643
						CHANNELS 3 Yrotation Zrotation Xrotation
						JOINT LeftHand
						{
							OFFSET	10.657035 -0.096881 0.581293
							CHANNELS 3 Zrotation Yrotation Xrotation
							JOINT LeftThumb1
							{
								OFFSET	0.678175 -0.581297 0.968821
								CHANNELS 3 Zrotation Yrotation Xrotation
								JOINT LeftThumb2
								{
									OFFSET	0.968823 -0.484410 0.484411
									CHANNELS 3 Zrotation Yrotation Xrotation
									JOINT LeftThumb3
									{
										OFFSET	0.929680 -0.497680 0.055639
										CHANNELS 3 Zrotation Yrotation Xrotation
										End Site
										{
											OFFSET 1.097190 -0.513867 -0.001182
										}
									}
								}
							}
							JOINT LeftIndex1
							{
								OFFSET	3.003348 0.581291 1.259468
								CHANNELS 3 Zrotation Yrotation Xrotation
								JOINT LeftIndex2
								{
									OFFSET	1.468153 -0.266718 0.069755
									CHANNELS 3 Zrotation Yrotation Xrotation
									JOINT LeftIndex3
									{
										OFFSET	0.944212 -0.382684 -0.083028
										CHANNELS 3 Zrotation Yrotation Xrotation
										End Site
										{
											OFFSET 0.675657 -0.558718 0.000000
										}
									}
								}
							}
							JOINT LeftMid1
							{
								OFFSET	3.197113 0.581291 0.290646
								CHANNELS 3 Zrotation Yrotation Xrotation
								JOINT LeftMid2
								{
									OFFSET	1.550115 -0.387529 0.000000
									CHANNELS 3 Zrotation Yrotation Xrotation
									JOINT LeftMid3
									{
										OFFSET	0.731071 -0.803926 0.018214
										CHANNELS 3 Zrotation Yrotation Xrotation
										End Site
										{
											OFFSET 0.366992 -0.937043 0.083406
										}
									}
								}
							}
							JOINT LeftRing1
							{
								OFFSET	3.197113 0.387529 -0.678175
								CHANNELS 3 Zrotation Yrotation Xrotation
								JOINT LeftRing2
								{
									OFFSET	1.259466 -0.484410 0.096882
									CHANNELS 3 Zrotation Yrotation Xrotation
									JOINT LeftRing3
									{
										OFFSET	0.551552 -0.801218 0.111221
										CHANNELS 3 Zrotation Yrotation Xrotation
										End Site
										{
											OFFSET 0.245208 -0.810324 0.000000
										}
									}
								}
							}
							JOINT LeftPinky1
							{
								OFFSET	2.809584 -0.096881 -1.453232
								CHANNELS 3 Zrotation Yrotation Xrotation
								JOINT LeftPinky2
								{
									OFFSET	0.984323 -0.316034 0.039140
									CHANNELS 3 Zrotation Yrotation Xrotation
									JOINT LeftPinky3
									{
										OFFSET	0.468908 -0.555906 0.057742
										CHANNELS 3 Zrotation Yrotation Xrotation
										End Site
										{
											OFFSET 0.479664 -0.640198 0.044081
										}
									}
								}
							}
						}
					}
				}
			}
		}
	}
	JOINT RightThigh
	{
		OFFSET	-3.875286 0.717509 0.339475
		CHANNELS 3 Xrotation Zrotation Yrotation
		JOINT RightShin
		{
			OFFSET	-0.434323 -20.673391 0.003424
			CHANNELS 3 Xrotation Zrotation Yrotation
			JOINT RightFoot
			{
				OFFSET	-0.063555 -15.653578 -0.075717
				CHANNELS 3 Xrotation Yrotation Zrotation
				JOINT RightToe
				{
					OFFSET	-0.513669 -2.790361 5.061637
					CHANNELS 3 Xrotation Yrotation Zrotation
					End Site
					{
						OFFSET 0.000000 -0.280183 2.993164
					}
				}
			}
		}
	}
	JOINT LeftThigh
	{
		OFFSET	3.875286 0.717509 0.339475
		CHANNELS 3 Xrotation Zrotation Yrotation
		JOINT LeftShin
		{
			OFFSET	0.434323 -20.673391 0.003424
			CHANNELS 3 Xrotation Zrotation Yrotation
			JOINT LeftFoot
			{
				OFFSET	0.063555 -15.653578 -0.075717
				CHANNELS 3 Xrotation Yrotation Zrotation
				JOINT LeftToe
				{
					OFFSET	0.513669 -2.874842 4.946725
					CHANNELS 3 Xrotation Yrotation Zrotation
					End Site
					{
						OFFSET 0.000000 -0.195702 3.108076
					}
				}
			}
		}
	}
}
MOTION
Frames:     6
Frame Time: 0.033333
-58.719402 40.238159 63.329823 5.275020 1.400300 -45.569500 6.859340 -1.919770 7.673510 14.941500 0.169839 7.780180 0.000000 0.000000 0.000000 -40.453300 -7.115510 -3.817410 0.000000 0.000000 0.000000 0.000000 0.000000 0.000000 -7.087940 -23.458401 -0.688165 88.873917 16.881369 8.884814 44.293526 0.023096 -0.594934 -12.160070 -17.799948 3.307293 -2.196803 8.088476 9.363434 3.147525 8.200828 -17.027071 -13.624039 11.527933 -17.398226 31.289900 19.533600 6.276580 -13.659037 9.822696 -5.878980 3.129372 3.416048 -6.315851 34.696049 23.527008 15.577812 8.244953 -1.502700 0.722675 -12.838020 -2.429856 5.230082 35.942455 25.760197 18.217253 -0.156757 -5.465929 4.370303 -17.719269 -3.972915 -0.926374 33.485588 25.796474 16.095177 6.763116 -5.654882 4.521092 4.441531 -3.901016 1.855662 2.374860 15.870500 0.909969 -92.068398 16.686232 -6.479684 -38.142941 0.015086 -0.349218 2.290730 44.956352 18.465073 1.301079 -8.886789 9.164861 -2.955782 -8.414250 -17.094837 10.068375 -12.319727 -17.903320 -10.289900 -19.533600 6.217660 -0.218670 -10.005516 -5.939189 -13.141240 -3.570157 -6.428788 -16.458578 -27.195522 -0.506856 -0.351563 0.000000 0.000000 -21.667566 1.148763 4.187686 -36.830936 -25.705244 18.217213 -0.736324 5.381598 4.224761 16.871576 3.912536 -1.093365 -34.376259 -25.747744 16.095236 -8.641175 4.276957 2.914167 -5.330077 3.798435 1.717381 9.364062 -0.404383 -23.952091 11.952921 0.050160 -0.043676 -3.948636 -1.902625 -7.274899 -0.000457 0.016384 -0.175016 -28.378162 3.481441 11.695972 -1.572630 0.172085 -0.009080 11.962070 14.187300 -3.827740 0.000000 0.000000 0.000000 
-59.114967 40.076813 63.652733 4.746650 0.875896 -44.397099 7.574130 -3.659300 7.589480 15.491200 3.049350 6.829400 0.000000 0.000000 0.000000 -41.173000 -8.650000 -2.004650 0.000000 0.000000 0.000000 0.000000 0.000000 0.000000 -7.116860 -24.001600 -0.572587 88.543121 16.356371 8.491201 43.412811 -0.144580 -0.701796 -13.230189 -17.480015 3.258904 -2.196803 8.088476 9.363434 3.147525 8.200828 -17.027071 -13.624039 11.527933 -17.398226 31.289900 19.533600 6.276580 -13.659037 9.822696 -5.878980 3.129372 3.416048 -6.315851 34.696049 23.527008 15.577812 8.244953 -1.502700 0.722675 -12.838020 -2.429856 5.230082 35.942455 25.760197 18.217253 -0.156757 -5.465929 4.370303 -17.719269 -3.972915 -0.926374 33.485588 25.796474 16.095177 6.763116 -5.654882 4.521092 4.441531 -3.901016 1.855662 1.817400 14.812500 1.264160 -91.711418 13.874858 -3.101458 -37.088257 -0.098072 -0.369921 8.108994 44.779133 24.366570 1.301079 -8.886789 9.164861 -2.955782 -8.414250 -17.094837 10.068375 -12.319727 -17.903320 -10.289900 -19.533600 6.217660 -0.218670 -10.005516 -5.939189 -13.141240 -3.570157 -6.428788 -16.458578 -27.195522 -0.506856 -0.351563 0.000000 0.000000 -21.667566 1.148763 4.187686 -36.830936 -25.705244 18.217213 -0.736324 5.381598 4.224761 16.871576 3.912536 -1.093365 -34.376259 -25.747744 16.095236 -8.641175 4.276957 2.914167 -5.330077 3.798435 1.717381 8.775554 -1.058965 -24.340643 17.929356 0.082169 -0.060783 1.105225 -5.431182 -11.740518 -0.000457 0.016384 -0.175016 -32.143929 4.211823 9.001868 10.195162 -0.036838 0.038378 8.969705 14.747179 -5.096150 0.000000 0.000000 0.000000 
-58.282459 40.180321 63.792919 4.042990 0.175345 -42.877602 8.816660 -4.516550 7.198700 15.695700 4.569900 6.214380 0.000000 0.000000 0.000000 -39.617699 -10.367000 -0.504256 0.000000 0.000000 0.000000 0.000000 0.000000 0.000000 -7.308960 -23.979200 -0.818709 88.329727 15.828315 8.881710 42.713074 0.026220 -0.407469 -13.585014 -17.660877 3.686582 -2.196803 8.088476 9.363434 3.147525 8.200828 -17.027071 -13.624039 11.527933 -17.398226 31.289900 19.533600 6.276580 -13.659037 9.822696 -5.878980 3.129372 3.416048 -6.315851 34.696049 23.527008 15.577812 8.244953 -1.502700 0.722675 -12.838020 -2.429856 5.230082 35.942455 25.760197 18.217253 -0.156757 -5.465929 4.370303 -17.719269 -3.972915 -0.926374 33.485588 25.796474 16.095177 6.763116 -5.654882 4.521092 4.441531 -3.901016 1.855662 1.086070 13.916700 1.462140 -90.832825 10.355852 1.328029 -36.032852 -0.283794 -0.407513 13.520546 43.532349 28.977924 1.301079 -8.886789 9.164861 -2.955782 -8.414250 -17.094837 10.068375 -12.319727 -17.903320 -10.289900 -19.533600 6.217660 -0.218670 -10.005516 -5.939189 -13.141240 -3.570157 -6.428788 -16.458578 -27.195522 -0.506856 -0.351563 0.000000 0.000000 -21.667566 1.148763 4.187686 -36.830936 -25.705244 18.217213 -0.736324 5.381598 4.224761 16.871576 3.912536 -1.093365 -34.376259 -25.747744 16.095236 -8.641175 4.276957 2.914167 -5.330077 3.798435 1.717381 6.680419 -2.987874 -24.743971 24.784952 0.000359 -0.102043 13.143281 -7.500354 -14.373615 -0.000457 0.016384 -0.175016 -31.130892 3.646201 8.502962 14.062382 -0.007001 0.056519 8.739193 14.098031 -5.335690 0.000000 0.000000 0.000000 
-59.036491 40.680244 64.901833 3.339980 -0.526451 -41.164902 10.753500 -4.317670 5.673810 14.971100 3.566450 5.708170 0.000000 0.000000 0.000000 -37.045601 -11.306000 0.129897 0.000000 0.000000 0.000000 0.000000 0.000000 0.000000 -7.470760 -23.432600 -1.002660 88.020523 15.123808 10.844452 42.183926 -0.141679 -0.519946 -11.808491 -18.663862 3.167084 -2.196803 8.088476 9.363434 3.147525 8.200828 -17.027071 -13.624039 11.527933 -17.398226 31.289900 19.533600 6.276580 -13.659037 9.822696 -5.878980 3.129372 3.416048 -6.315851 34.696049 23.527008 15.577812 8.244953 -1.502700 0.722675 -12.838020 -2.429856 5.230082 35.942455 25.760197 18.217253 -0.156757 -5.465929 4.370303 -17.719269 -3.972915 -0.926374 33.485588 25.796474 16.095177 6.763116 -5.654882 4.521092 4.441531 -3.901016 1.855662 0.541741 13.376600 1.771000 -89.561562 6.472689 4.729177 -35.153915 -0.289268 -0.398069 16.797409 41.042110 30.446600 1.301079 -8.886789 9.164861 -2.955782 -8.414250 -17.094837 10.068375 -12.319727 -17.903320 -10.289900 -19.533600 6.217660 -0.218670 -10.005516 -5.939189 -13.141240 -3.570157 -6.428788 -16.458578 -27.195522 -0.506856 -0.351563 0.000000 0.000000 -21.667566 1.148763 4.187686 -36.830936 -25.705244 18.217213 -0.736324 5.381598 4.224761 16.871576 3.912536 -1.093365 -34.376259 -25.747744 16.095236 -8.641175 4.276957 2.914167 -5.330077 3.798435 1.717381 1.748712 -5.263763 -25.762320 33.044212 -0.422091 -0.260815 17.708622 -12.346640 -14.680950 -0.000457 0.016384 -0.175016 -28.550068 2.786314 8.347317 14.238071 -0.051216 0.051927 10.302899 13.869470 -5.741604 0.000000 0.000000 0.000000 
-59.637646 40.125679 66.038071 2.285840 -1.405140 -39.259399 13.029200 -3.254060 3.984770 13.890700 1.365150 5.439290 0.000000 0.000000 0.000000 -35.367401 -10.960100 0.647816 0.000000 0.000000 0.000000 0.000000 0.000000 0.000000 -7.802020 -22.511000 -1.382410 87.139847 14.072522 13.470048 41.833897 0.207790 -0.456712 -8.548264 -20.509377 2.213752 -2.196803 8.088476 9.363434 3.147525 8.200828 -17.027071 -13.624039 11.527933 -17.398226 31.289900 19.533600 6.276580 -13.659037 9.822696 -5.878980 3.129372 3.416048 -6.315851 34.696049 23.527008 15.577812 8.244953 -1.502700 0.722675 -12.838020 -2.429856 5.230082 35.942455 25.760197 18.217253 -0.156757 -5.465929 4.370303 -17.719269 -3.972915 -0.926374 33.485588 25.796474 16.095177 6.763116 -5.654882 4.521092 4.441531 -3.901016 1.855662 0.000000 13.886700 2.285170 -88.323822 1.026413 6.421619 -34.452251 -0.291639 -0.216877 17.649803 36.990940 27.441885 1.301079 -8.886789 9.164861 -2.955782 -8.414250 -17.094837 10.068375 -12.319727 -17.903320 -10.289900 -19.533600 6.217660 -0.218670 -10.005516 -5.939189 -13.141240 -3.570157 -6.428788 -16.458578 -27.195522 -0.506856 -0.351563 0.000000 0.000000 -21.667566 1.148763 4.187686 -36.830936 -25.705244 18.217213 -0.736324 5.381598 4.224761 16.871576 3.912536 -1.093365 -34.376259 -25.747744 16.095236 -8.641175 4.276957 2.914167 -5.330077 3.798435 1.717381 -4.393217 -8.421037 -26.300209 43.241817 0.000828 -0.183727 21.845022 -19.273653 -8.975175 -0.000457 0.016384 -0.175016 -25.090858 1.747643 8.220757 12.656065 -0.045292 0.046766 13.273078 13.954772 -5.684719 0.000000 0.000000 0.000000 
-60.338974 40.438812 67.226524 1.231450 -2.284640 -37.321499 15.127000 -2.036360 2.080470 13.008800 -0.685085 5.288860 0.000000 0.000000 0.000000 -33.863800 -8.935980 0.308086 0.000000 0.000000 0.000000 0.000000 0.000000 0.000000 -7.941540 -21.590900 -1.686290 86.638412 12.840216 16.102404 41.658432 0.040583 -0.401223 -5.292124 -22.081348 1.377852 -2.196803 8.088476 9.363434 3.147525 8.200828 -17.027071 -13.624039 11.527933 -17.398226 31.289900 19.533600 6.276580 -13.659037 9.822696 -5.878980 3.129372 3.416048 -6.315851 34.696049 23.527008 15.577812 8.244953 -1.502700 0.722675 -12.838020 -2.429856 5.230082 35.942455 25.760197 18.217253 -0.156757 -5.465929 4.370303 -17.719269 -3.972915 -0.926374 33.485588 25.796474 16.095177 6.763116 -5.654882 4.521092 4.441531 -3.901016 1.855662 -0.363751 15.100700 2.728360 -87.117874 -5.286123 7.920043 -33.923988 -0.195591 -0.360117 18.625385 32.053383 22.439457 1.301079 -8.886789 9.164861 -2.955782 -8.414250 -17.094837 10.068375 -12.319727 -17.903320 -10.289900 -19.533600 6.217660 -0.218670 -10.005516 -5.939189 -13.141240 -3.570157 -6.428788 -16.458578 -27.195522 -0.506856 -0.351563 0.000000 0.000000 -21.667566 1.148763 4.187686 -36.830936 -25.705244 18.217213 -0.736324 5.381598 4.224761 16.871576 3.912536 -1.093365 -34.376259 -25.747744 16.095236 -8.641175 4.276957 2.914167 -5.330077 3.798435 1.717381 -11.219236 -11.678181 -26.725790 53.261250 0.000581 -0.232440 27.059759 -25.626375 0.305863 -0.000457 0.016384 -0.175016 -22.828861 1.050311 7.920059 14.413941 -0.007035 0.057941 11.845746 11.909420 -6.350171 0.000000 0.000000 0.000000 
